Coordinates
version=1
nRows=36
nColumns=32
inDegrees=no

Units are S.I. units (second, meters, Newtons, ...)
If the header above contains a line with 'inDegrees', this indicates whether rotational values are in degrees (yes) or radians (no).

endheader
time	pelvis_tilt	pelvis_list	pelvis_rotation	pelvis_tx	pelvis_ty	pelvis_tz	hip_flexion_r	hip_adduction_r	hip_rotation_r	knee_angle_r	ankle_angle_r	subtalar_angle_r	mtp_angle_r	hip_flexion_l	hip_adduction_l	hip_rotation_l	knee_angle_l	ankle_angle_l	subtalar_angle_l	mtp_angle_l	lumbar_extension	lumbar_bending	lumbar_rotation	arm_flex_r	arm_add_r	arm_rot_r	elbow_flex_r	arm_flex_l	arm_add_l	arm_rot_l	elbow_flex_l
2.385	-0.117268	-0.0120251	-0.0794864	0.919038	0.995679	-0.281392	1.04233	0.064445	-0.0426943	0.886424	-0.118557	-0.361386	0.0656566	-0.420179	-0.0388645	-0.204902	0.66145	-0.572175	0.244398	0.0510108	-0.112045	-0.00195086	-0.253238	-1.211	-0.39702	0.137439	1.65774	-0.293996	-0.285252	-0.0161205	2.48835
2.39	-0.116796	-0.00811084	-0.0777376	0.917843	0.997216	-0.281826	1.00594	0.0620981	-0.0467802	0.784611	-0.11817	-0.302501	0.0657484	-0.397968	-0.0385944	-0.181992	0.746445	-0.561956	0.240033	0.0510024	-0.116929	-0.00377079	-0.25829	-1.1817	-0.388554	0.148589	1.64881	-0.308029	-0.280189	-0.0190544	2.46696
2.395	-0.115342	-0.00411989	-0.0760624	0.916672	0.99862	-0.282264	0.968243	0.059362	-0.0541247	0.688414	-0.119255	-0.240814	0.0658402	-0.375299	-0.0380931	-0.16484	0.832753	-0.555028	0.230175	0.050994	-0.122877	-0.00577314	-0.263373	-1.15005	-0.380225	0.160172	1.63999	-0.323975	-0.273754	-0.0237838	2.44174
2.4	-0.113098	-0.000164858	-0.0744673	0.915556	0.999851	-0.282741	0.930431	0.0561627	-0.065537	0.59998	-0.122282	-0.177778	0.065932	-0.352371	-0.0374107	-0.152456	0.919297	-0.550823	0.214175	0.0509855	-0.129588	-0.00771834	-0.268195	-1.11681	-0.371741	0.171562	1.63172	-0.341363	-0.266127	-0.0297686	2.4129
2.405	-0.110288	0.00356398	-0.0729267	0.914505	1.00088	-0.283282	0.893561	0.0525047	-0.0816294	0.521129	-0.127814	-0.115191	0.0660238	-0.329192	-0.0367816	-0.143771	1.00542	-0.547875	0.192433	0.0509771	-0.136768	-0.00928749	-0.272429	-1.08261	-0.3628	0.182226	1.62431	-0.359619	-0.257573	-0.0363729	2.38058
2.41	-0.107131	0.00682308	-0.0714159	0.913522	1.00169	-0.283903	0.858476	0.0484727	-0.102708	0.453229	-0.136332	-0.0551295	0.0661157	-0.305661	-0.0365694	-0.1378	1.09078	-0.544311	0.166209	0.0509686	-0.144166	-0.0101174	-0.275712	-1.04798	-0.353154	0.191762	1.61799	-0.378123	-0.248409	-0.0429307	2.34493
2.415	-0.103807	0.00936056	-0.0699356	0.912602	1.00227	-0.284605	0.825735	0.044205	-0.128677	0.397132	-0.14804	0.000235038	0.0662075	-0.281635	-0.0371886	-0.133744	1.17522	-0.538342	0.137284	0.0509601	-0.151589	-0.00985902	-0.277675	-1.01328	-0.342653	0.199933	1.61287	-0.396287	-0.238978	-0.0488125	2.3061
2.42	-0.100435	0.0109605	-0.0685249	0.911742	1.00262	-0.285381	0.795597	0.0398616	-0.158974	0.353165	-0.162711	0.0488819	0.0662993	-0.256994	-0.0390327	-0.131019	1.25868	-0.528666	0.10759	0.0509516	-0.158917	-0.00823347	-0.277965	-0.978781	-0.33128	0.206672	1.60901	-0.4136	-0.229614	-0.0534841	2.26425
2.425	-0.0970628	0.0114647	-0.0672626	0.910941	1.00274	-0.286212	0.768027	0.0356149	-0.192535	0.321151	-0.179629	0.0891717	0.0663912	-0.231668	-0.0424325	-0.129237	1.34108	-0.514685	0.0788757	0.0509431	-0.166109	-0.0050614	-0.276276	-0.944583	-0.31916	0.21207	1.60639	-0.429675	-0.220621	-0.0565482	2.21958
2.43	-0.0936787	0.010763	-0.0662565	0.910199	1.00263	-0.287071	0.742737	0.0316675	-0.227821	0.300472	-0.197595	0.120003	0.066483	-0.20565	-0.0476452	-0.128142	1.4223	-0.496521	0.0524758	0.0509346	-0.173202	-0.000252852	-0.272367	-0.910687	-0.306557	0.216355	1.60496	-0.444259	-0.21224	-0.0577621	2.17236
2.435	-0.0902298	0.00876842	-0.0656245	0.909519	1.0023	-0.287922	0.71926	0.0282824	-0.262941	0.290189	-0.214953	0.140882	0.0665749	-0.178962	-0.0548677	-0.127534	1.50218	-0.474857	0.0292135	0.050926	-0.180294	0.00622665	-0.266078	-0.876984	-0.293842	0.219844	1.60469	-0.457232	-0.204633	-0.0570369	2.12292
2.44	-0.0866483	0.00539565	-0.0654766	0.908901	1.00177	-0.288729	0.697064	0.0257979	-0.295848	0.289217	-0.229621	0.151903	0.0666668	-0.151623	-0.0642552	-0.127205	1.58054	-0.450702	0.00942882	0.0509174	-0.187532	0.0143866	-0.257323	-0.843285	-0.28146	0.222892	1.60554	-0.468593	-0.197882	-0.0544229	2.07171
2.445	-0.0828777	0.000560945	-0.065906	0.908339	1.00101	-0.289457	0.675685	0.0246104	-0.324582	0.296534	-0.239128	0.153678	0.0667586	-0.123609	-0.0759219	-0.126902	1.65716	-0.425147	-0.00691238	0.0509089	-0.195079	0.0242181	-0.246077	-0.809351	-0.269877	0.225848	1.60751	-0.478438	-0.191997	-0.0500864	2.01927
2.45	-0.0788941	-0.00579338	-0.0669932	0.907818	1.00003	-0.290072	0.654826	0.025127	-0.347518	0.311348	-0.240751	0.147207	0.0668505	-0.0948232	-0.0899166	-0.12632	1.73186	-0.399156	-0.0200675	0.0509003	-0.203095	0.0356727	-0.232355	-0.77493	-0.259535	0.228998	1.61067	-0.48695	-0.186939	-0.0442805	1.96628
2.455	-0.0747132	-0.0136588	-0.0688163	0.907319	0.998796	-0.290545	0.634408	0.0276962	-0.363571	0.333159	-0.231792	0.133761	0.0669424	-0.0650924	-0.106181	-0.125111	1.80445	-0.373442	-0.030375	0.0508916	-0.211712	0.0486233	-0.216175	-0.739809	-0.250806	0.232536	1.61516	-0.494379	-0.182657	-0.0373095	1.91353
2.46	-0.0703714	-0.0229138	-0.0714562	0.906817	0.997273	-0.290855	0.614514	0.032525	-0.37233	0.361684	-0.210035	0.114756	0.0670343	-0.0342062	-0.124501	-0.122911	1.87471	-0.348408	-0.0381525	0.050883	-0.221025	0.062813	-0.19755	-0.703858	-0.243965	0.236544	1.62121	-0.501044	-0.179129	-0.0294943	1.86194
2.465	-0.0658831	-0.0332871	-0.0749831	0.906282	0.995456	-0.290989	0.595257	0.0395975	-0.374107	0.39667	-0.174318	0.091642	0.0671262	-0.00199744	-0.144471	-0.119356	1.94233	-0.324185	-0.0436485	0.0508744	-0.231096	0.0778144	-0.176502	-0.667087	-0.239163	0.240986	1.62915	-0.507341	-0.176386	-0.0211485	1.81253
2.47	-0.0613028	-0.0443792	-0.0794679	0.905685	0.993351	-0.290949	0.576727	0.0487202	-0.36972	0.437574	-0.125211	0.0656144	0.0672181	0.0317469	-0.16555	-0.114114	2.00696	-0.300697	-0.0470209	0.0508658	-0.241899	0.0930487	-0.153068	-0.629625	-0.236423	0.245747	1.63932	-0.513713	-0.174534	-0.0125738	1.76638
2.475	-0.0567697	-0.0557239	-0.0849931	0.904988	0.990988	-0.290743	0.558945	0.0596276	-0.360143	0.483322	-0.0653066	0.0373198	0.06731	0.0673401	-0.18716	-0.106921	2.06814	-0.277754	-0.0483519	0.0508571	-0.253282	0.107854	-0.127307	-0.591681	-0.235643	0.250669	1.65204	-0.520623	-0.173752	-0.00405721	1.72456
2.48	-0.0525331	-0.0668669	-0.0916519	0.904157	0.988408	-0.290376	0.541834	0.0720958	-0.346151	0.532264	0.00112907	0.00684587	0.0674019	0.105216	-0.2088	-0.0976205	2.12539	-0.255133	-0.0476806	0.0508485	-0.264943	0.121587	-0.0992975	-0.553525	-0.236621	0.255582	1.66755	-0.528519	-0.174253	0.00413546	1.68806
2.485	-0.0489484	-0.0774463	-0.0995255	0.903176	0.985662	-0.289846	0.525227	0.0859503	-0.328204	0.58233	0.0690977	-0.0258743	0.0674938	0.145915	-0.230089	-0.086183	2.17818	-0.232647	-0.0450632	0.0508398	-0.276417	0.133696	-0.0691792	-0.515474	-0.239086	0.260315	1.68594	-0.53781	-0.176251	0.0117698	1.65764
2.49	-0.0464471	-0.087171	-0.10862	0.902051	0.982813	-0.289154	0.508866	0.10096	-0.306582	0.631312	0.133968	-0.0605266	0.0675857	0.190022	-0.250712	-0.0727093	2.22592	-0.21019	-0.040668	0.0508312	-0.287082	0.143742	-0.0372152	-0.477895	-0.242725	0.264692	1.70717	-0.548841	-0.179922	0.0186489	1.63383
2.495	-0.045475	-0.0957746	-0.118789	0.900808	0.97993	-0.288303	0.492417	0.116689	-0.281625	0.677141	0.192274	-0.0961032	0.0676776	0.238085	-0.270303	-0.0574275	2.26802	-0.187755	-0.034875	0.0508225	-0.296196	0.1514	-0.00386655	-0.441205	-0.247214	0.268533	1.73108	-0.561889	-0.185373	0.0246156	1.61685
2.5	-0.0464124	-0.102976	-0.129677	0.899486	0.977075	-0.287315	0.47548	0.132393	-0.253918	0.718093	0.242034	-0.130961	0.0677695	0.290504	-0.288342	-0.0406873	2.30391	-0.16544	-0.0283376	0.0508139	-0.302979	0.156444	0.0301644	-0.40585	-0.252242	0.271666	1.7574	-0.577142	-0.192619	0.0295506	1.60664
2.505	-0.0494944	-0.108456	-0.140697	0.89813	0.974296	-0.286231	0.45761	0.14701	-0.224389	0.752903	0.28265	-0.163149	0.0678615	0.347423	-0.304086	-0.0229623	2.33304	-0.143429	-0.0219699	0.0508052	-0.306715	0.158733	0.0639439	-0.372277	-0.257541	0.273943	1.7858	-0.5947	-0.201584	0.0333742	1.60292
2.51	-0.0547402	-0.111866	-0.151068	0.896805	0.971635	-0.285116	0.438315	0.159244	-0.194322	0.780791	0.314538	-0.190767	0.0679534	0.408619	-0.316575	-0.00484942	2.35496	-0.121976	-0.0168485	0.0507966	-0.306876	0.158199	0.0963777	-0.340904	-0.262898	0.275244	1.81597	-0.614557	-0.212109	0.0360516	1.60517
2.515	-0.0619126	-0.112861	-0.159885	0.895591	0.969143	-0.284053	0.417044	0.167725	-0.165275	0.801413	0.338643	-0.212244	0.0680453	0.473426	-0.324713	0.0129398	2.36932	-0.101382	-0.0140646	0.0507879	-0.303234	0.15484	0.126323	-0.312089	-0.268168	0.275477	1.84768	-0.636607	-0.223976	0.0375929	1.61277
2.52	-0.070522	-0.111137	-0.166226	0.89458	0.966883	-0.283141	0.393185	0.171205	-0.138946	0.814758	0.355968	-0.226532	0.0681373	0.540736	-0.327397	0.0295995	2.37588	-0.0819712	-0.0145881	0.0507792	-0.295923	0.14869	0.152721	-0.286107	-0.273282	0.274577	1.8808	-0.660648	-0.236948	0.0380435	1.62502
2.525	-0.0798787	-0.106491	-0.169265	0.893866	0.964926	-0.282487	0.366092	0.168735	-0.116995	0.821023	0.367192	-0.233193	0.0682292	0.609062	-0.323672	0.0442715	2.37453	-0.0640709	-0.0191513	0.0507706	-0.285445	0.139795	0.174709	-0.263128	-0.278234	0.272516	1.91525	-0.686397	-0.250791	0.0374607	1.64123
2.53	-0.0891736	-0.0988119	-0.168375	0.893532	0.963348	-0.282185	0.335114	0.15981	-0.100914	0.820495	0.372459	-0.232361	0.0683212	0.676671	-0.312897	0.0561219	2.36528	-0.0479724	-0.0281318	0.0507619	-0.272603	0.128219	0.191714	-0.243196	-0.283072	0.269328	1.951	-0.713528	-0.265295	0.0358835	1.66076
2.535	-0.0976047	-0.0881249	-0.163208	0.89365	0.962226	-0.282306	0.299679	0.144447	-0.091914	0.813456	0.371317	-0.224597	0.0684132	0.741779	-0.294882	0.0644377	2.34829	-0.0338803	-0.0414438	0.0507533	-0.258382	0.11404	0.203513	-0.226242	-0.287874	0.265116	1.98797	-0.741717	-0.280291	0.0333139	1.68305
2.54	-0.104519	-0.0746054	-0.153747	0.894259	0.961623	-0.282884	0.259394	0.123187	-0.0908594	0.800143	0.362799	-0.210684	0.0685051	0.802774	-0.26996	0.0687193	2.32385	-0.0218562	-0.0584855	0.0507447	-0.243763	0.0973795	0.210253	-0.212131	-0.292727	0.260032	2.02603	-0.770674	-0.295648	0.0297171	1.70764
2.545	-0.109537	-0.0585711	-0.14031	0.89536	0.96158	-0.283913	0.214171	0.0970313	-0.0982198	0.780747	0.345624	-0.19143	0.0685971	0.858429	-0.238996	0.0687352	2.29237	-0.0117996	-0.0782185	0.050736	-0.229545	0.0784272	0.212448	-0.200712	-0.297706	0.254232	2.06501	-0.800164	-0.311281	0.0250362	1.73412
2.55	-0.112625	-0.0404638	-0.123509	0.896926	0.962103	-0.28535	0.164315	0.0673272	-0.114024	0.75547	0.318457	-0.167575	0.0686891	0.90804	-0.203303	0.064528	2.25442	-0.00348229	-0.0993744	0.0507274	-0.216202	0.0574699	0.210925	-0.191866	-0.302868	0.247841	2.10467	-0.830021	-0.327137	0.0192132	1.76216
2.555	-0.114093	-0.0208317	-0.104177	0.898906	0.963165	-0.287131	0.11056	0.0356345	-0.137812	0.7246	0.2802	-0.139791	0.0687811	0.951469	-0.164523	0.0563859	2.21062	0.00336385	-0.120723	0.0507188	-0.203832	0.0349035	0.206737	-0.18552	-0.308259	0.240923	2.14479	-0.860139	-0.343191	0.0122121	1.79146
2.56	-0.114523	-0.000320911	-0.0832681	0.901235	0.964694	-0.289177	0.0540395	0.00360409	-0.168581	0.688599	0.230252	-0.108804	0.0688731	0.989086	-0.12448	0.0448077	2.1617	0.00894571	-0.141291	0.0507102	-0.192189	0.011245	0.20107	-0.181633	-0.313919	0.233472	2.18514	-0.890453	-0.359435	0.00403712	1.82174
